{"title":"Vado ft Camron - Speakin Tongues [KingPinVideos]","uid":5732848,"size":81605886,"categoryP":"other","categoryS":"other","magnet":"?xt=urn:btih:4caa1ea903149d2bafd48de76b8eace1ca211091&amp;dn=Vado+ft+Camron+-+Speakin+Tongues+%5BKingPinVideos%5D&amp;tr=udp%3A%2F%2Ftracker.openbittorrent.com%3A80&amp;tr=udp%3A%2F%2Fopen.demonii.com%3A1337&amp;tr=udp%3A%2F%2Ftracker.coppersurfer.tk%3A6969&amp;tr=udp%3A%2F%2Fexodus.desync.com%3A6969","seeders":0,"leechers":1,"uploader":null,"files":4,"time":1280716900,"description":"[img]http://a.imageshack.us/img836/8093/vadospeak2.png[/img]\n\n[img]http://a.imageshack.us/img695/6028/vadospeak3.png[/img]\n\n[img]http://a.imageshack.us/img841/657/vadospeak4.png[/img]\n\n[code]General\nComplete name                    : Vado ft Camron - Speakin Tongues [KingPinVideos].mpg\nFormat                           : MPEG-PS\nFile size                        : 77.7 MiB\nDuration                         : 3mn 42s\nOverall bit rate                 : 2 922 Kbps\nWriting library                  : encoded by TMPGEnc 4.0 XPress Version. 4.7.4.299\n\nVideo\nID                               : 224 (0xE0)\nFormat                           : MPEG Video\nFormat version                   : Version 1\nFormat settings, BVOP            : Yes\nFormat settings, Matrix          : Default\nDuration                         : 3mn 42s\nBit rate mode                    : Constant\nBit rate                         : 2 614 Kbps\nNominal bit rate                 : 2 700 Kbps\nWidth                            : 384 pixels\nHeight                           : 208 pixels\nDisplay aspect ratio             : 16:9\nFrame rate                       : 29.970 fps\nResolution                       : 8 bits\nScan type                        : Progressive\nBits/(Pixel*Frame)               : 1.092\nStream size                      : 69.5 MiB (89%)\nWriting library                  : TMPGEnc XPress 4.7.4.299\n\nAudio\nID                               : 192 (0xC0)\nFormat                           : MPEG Audio\nFormat version                   : Version 1\nFormat profile                   : Layer 2\nDuration                         : 3mn 42s\nBit rate mode                    : Constant\nBit rate                         : 192 Kbps\nChannel(s)                       : 2 channels\nSampling rate                    : 48.0 KHz\nStream size                      : 5.10 MiB (7%)\n[/code]\n\nGet The Latest At [url]KingPinVideos.com[/url]","torrent":{"xt":"urn:btih:4caa1ea903149d2bafd48de76b8eace1ca211091","amp;dn":"Vado+ft+Camron+-+Speakin+Tongues+%5BKingPinVideos%5D","amp;tr":["udp%3A%2F%2Ftracker.openbittorrent.com%3A80","udp%3A%2F%2Fopen.demonii.com%3A1337","udp%3A%2F%2Ftracker.coppersurfer.tk%3A6969","udp%3A%2F%2Fexodus.desync.com%3A6969"],"infoHash":"4caa1ea903149d2bafd48de76b8eace1ca211091","infoHashBuffer":{"type":"Buffer","data":[76,170,30,169,3,20,157,43,175,212,141,231,107,142,172,225,202,33,16,145]},"announce":[],"urlList":[]}}